<svg width="100" height="100" viewBox="0 0 100 100" fill="none" xmlns="http://www.w3.org/2000/svg">
<g clip-path="url(#clip0_36_2)">
<path d="M49.5 59.8487C60.9672 59.8487 70.3475 50.4326 70.3475 38.9244C70.3475 27.4162 60.9672 18 49.5 18C38.0329 18 28.6526 27.4162 28.6526 38.9244C28.6526 50.4326 38.0329 59.8487 49.5 59.8487ZM49.5 70.3109C35.689 70.3109 12 71.138 12 85L16.5 90L28.0568 97.9187C29.0118 98.573 30.0725 99.0579 31.1921 99.3521C47.3642 103.6 64.5686 101.089 78.8514 92.3948L79.5 92L87.5 85C87.5 71.138 63.3111 70.3109 49.5 70.3109Z" fill="#D7D7D7"/>
</g>
<defs>
<clipPath id="clip0_36_2">
<rect width="100" height="100" fill="white"/>
</clipPath>
</defs>
</svg>
