<svg width="100" height="100" viewBox="0 0 100 100" fill="none" xmlns="http://www.w3.org/2000/svg">
<g clip-path="url(#clip0_36_2)">
<path d="M50 99C77.062 99 99 77.062 99 50C99 22.938 77.062 1 50 1C22.938 1 1 22.938 1 50C1 77.062 22.938 99 50 99Z" fill="#FCFCFC" stroke="#D7D7D7" stroke-width="2"/>
<path d="M49.5 56.8487C60.9672 56.8487 70.3475 47.4326 70.3475 35.9244C70.3475 24.4162 60.9672 15 49.5 15C38.0329 15 28.6526 24.4162 28.6526 35.9244C28.6526 47.4326 38.0329 56.8487 49.5 56.8487ZM49.5 67.3109C35.689 67.3109 12 68.138 12 82L16.5 87L28.0568 94.9187C29.0118 95.573 30.0725 96.0579 31.1921 96.3521C47.3642 100.6 64.5686 98.0887 78.8514 89.3948L79.5 89L87.5 82C87.5 68.138 63.3111 67.3109 49.5 67.3109Z" fill="#D7D7D7"/>
</g>
<defs>
<clipPath id="clip0_36_2">
<rect width="100" height="100" fill="white"/>
</clipPath>
</defs>
</svg>
